<?xml version="1.0" encoding="utf-8"?>
<!-- Generator: Adobe Illustrator 21.1.0, SVG Export Plug-In . SVG Version: 6.00 Build 0)  -->
<svg version="1.1" id="Слой_1" xmlns="http://www.w3.org/2000/svg" xmlns:xlink="http://www.w3.org/1999/xlink" x="0px" y="0px"
	 viewBox="0 0 42 40" style="enable-background:new 0 0 42 40;" xml:space="preserve">
<style type="text/css">
	.st0{fill:#FF5656;}
</style>
<g id="layer101">
	<path class="st0" d="M12.5,38.3C2.3,33.1-2.6,21.7,1.6,12.9C6.7,2.3,18.5-2.6,28.5,1.6c4.4,1.8,3.6,4.1-0.9,2.4
		c-4.3-1.6-10.6-1.2-15,1C0.7,10.8,0,27.8,11.4,34.5c12,7.1,27.5-1,27.6-14.3c0-3.7-2.2-10.2-3.5-10.2c-0.2,0-3.4,5-7.1,11
		c-3.7,6.1-7.1,10.9-7.5,10.8c-0.5-0.2-2.9-3.2-5.4-6.8c-5.3-7.6-4.2-9.7,1.7-2.9c2,2.4,3.9,4.1,4.1,3.9c0.3-0.3,3.5-5.2,7.1-10.8
		c6.7-10.4,6.7-10.4,8.5-8C45.2,17.8,43.1,30,32,36.8c-4.5,2.6-6.4,3.2-11,3.1C18,39.8,14.2,39.1,12.5,38.3z"/>
</g>
</svg>
