<!DOCTYPE svg PUBLIC "-//W3C//DTD SVG 20010904//EN" "http://www.w3.org/TR/2001/REC-SVG-20010904/DTD/svg10.dtd">
<svg version="1.0" xmlns="http://www.w3.org/2000/svg" width="42px" height="40px" viewBox="0 0 420 400" preserveAspectRatio="xMidYMid meet">
<g id="layer101" fill="#2dafc8" stroke="none">
 <path d="M125 383 c-102 -52 -151 -166 -109 -254 51 -106 169 -155 269 -113 44 18 36 41 -9 24 -43 -16 -106 -12 -150 10 -119 58 -126 228 -12 295 120 71 275 -10 276 -143 0 -37 -22 -102 -35 -102 -2 0 -34 50 -71 110 -37 61 -71 109 -75 108 -5 -2 -29 -32 -54 -68 -53 -76 -42 -97 17 -29 20 24 39 41 41 39 3 -3 35 -52 71 -108 67 -104 67 -104 85 -80 83 106 62 228 -49 296 -45 26 -64 32 -110 31 -30 -1 -68 -8 -85 -16z"/>
 </g>

</svg>